<?xml version="1.0" encoding="utf-8"?>
<!-- Generator: Adobe Illustrator 22.1.0, SVG Export Plug-In . SVG Version: 6.00 Build 0)  -->
<svg version="1.1" id="Lager_1" xmlns="http://www.w3.org/2000/svg" xmlns:xlink="http://www.w3.org/1999/xlink" x="0px" y="0px"
	 viewBox="0 0 75 75" style="enable-background:new 0 0 75 75;" xml:space="preserve">
<style type="text/css">
	.st0{fill:none;stroke:#891835;}
	.st1{fill:#FFFFFF;}
</style>
<title>Group</title>
<desc>Created with Sketch.</desc>
<g id="_x30_5.02.00-Example-SingleSong">
	<g id="HD_05.02.00-Example-SingleSong" transform="translate(-537.000000, -574.000000)">
		<g id="Body" transform="translate(48.000000, 180.000000)">
			<g id="Content">
				<g id="Example" transform="translate(318.000000, 0.000000)">
					<g id="Player" transform="translate(148.000000, 95.000000)">
						<g id="Bottom" transform="translate(0.000000, 285.000000)">
							<g id="Play_x2F_Pause" transform="translate(24.000000, 15.000000)">
								<g id="Group">
									<circle id="Oval" class="st0" cx="36.5" cy="36.5" r="36.5"/>
									<path id="Shape" class="st1" d="M30.5,23h-4.3C25,23,24,24,24,25.2v23.6c0,1.2,1,2.2,2.2,2.2h4.3c1.2,0,2.2-1,2.2-2.2V25.2
										C32.7,24,31.7,23,30.5,23z"/>
									<path id="Shape_1_" class="st1" d="M46.9,23h-4.3c-1.2,0-2.2,1-2.2,2.2v23.6c0,1.2,1,2.2,2.2,2.2h4.3c1.2,0,2.2-1,2.2-2.2
										V25.2C49.1,24,48.1,23,46.9,23z"/>
								</g>
							</g>
						</g>
					</g>
				</g>
			</g>
		</g>
	</g>
</g>
</svg>
