<svg id="Lager_1" data-name="Lager 1" xmlns="http://www.w3.org/2000/svg" viewBox="0 0 300 300"><defs><style>.cls-1{fill:#fcfcfc;}</style></defs><title>Rityta 1</title><path class="cls-1" d="M274.14,233.9a6.64,6.64,0,0,1,.93-2.94c31-51.44,28.62-116.25-6.67-163.85C241.15,30.35,197.1,8.5,150.36,8.5h-.73c-46.73,0-90.79,21.85-118,58.61C-3.81,114.86-6,179.92,25.22,231.43a21.36,21.36,0,0,1,3.06,9.62l2.46,36.54A14.78,14.78,0,0,0,43.51,291.4,14.58,14.58,0,0,0,59.77,276l-6.25-92.45a14.74,14.74,0,0,0-12.77-13.8A14.56,14.56,0,0,0,24.5,185.15l2,30a.62.62,0,0,1-1.17.32C2.74,168.86,7,113.33,37.82,71.72,63.53,37,105.08,16.38,149.22,16.25h1.55c44.14.13,85.69,20.79,111.41,55.47,29.59,39.92,34.69,92.65,15.08,138.07a.77.77,0,0,1-1.47-.36l1.71-25.23a13.47,13.47,0,0,0-13.59-14.53h0a15.84,15.84,0,0,0-15.54,14.53l-6.18,91.43A14.76,14.76,0,0,0,253,291a14.57,14.57,0,0,0,18.18-13.09Z"/></svg>